<svg xmlns="http://www.w3.org/2000/svg" viewBox="0 0 32 32" fill="none">
  <rect width="32" height="32" rx="8" fill="#e8829a"/>
  <path d="M16 8c0 0-2 3-2 5s2 3 2 3 2-1 2-3-2-5-2-5z" fill="white" opacity="0.9"/>
  <path d="M10 12c0 0 3 2 4 4s0 3 0 3-2 0-3-2-1-5-1-5z" fill="white" opacity="0.9"/>
  <path d="M22 12c0 0-3 2-4 4s0 3 0 3 2 0 3-2 1-5 1-5z" fill="white" opacity="0.9"/>
  <path d="M9 18c0 0 3 0 5 2s2 4 2 4-2 1-4-1-3-5-3-5z" fill="white" opacity="0.9"/>
  <path d="M23 18c0 0-3 0-5 2s-2 4-2 4 2 1 4-1 3-5 3-5z" fill="white" opacity="0.9"/>
  <circle cx="16" cy="19" r="3" fill="white" opacity="0.95"/>
</svg>
